%TF.GenerationSoftware,KiCad,Pcbnew,8.0.2*%
%TF.CreationDate,2024-09-09T09:37:27-05:00*%
%TF.ProjectId,wh3lk,7768336c-6b2e-46b6-9963-61645f706362,v2.0.0a*%
%TF.SameCoordinates,Original*%
%TF.FileFunction,Copper,L1,Top*%
%TF.FilePolarity,Positive*%
%FSLAX46Y46*%
G04 Gerber Fmt 4.6, Leading zero omitted, Abs format (unit mm)*
G04 Created by KiCad (PCBNEW 8.0.2) date 2024-09-09 09:37:27*
%MOMM*%
%LPD*%
G01*
G04 APERTURE LIST*
G04 Aperture macros list*
%AMRoundRect*
0 Rectangle with rounded corners*
0 $1 Rounding radius*
0 $2 $3 $4 $5 $6 $7 $8 $9 X,Y pos of 4 corners*
0 Add a 4 corners polygon primitive as box body*
4,1,4,$2,$3,$4,$5,$6,$7,$8,$9,$2,$3,0*
0 Add four circle primitives for the rounded corners*
1,1,$1+$1,$2,$3*
1,1,$1+$1,$4,$5*
1,1,$1+$1,$6,$7*
1,1,$1+$1,$8,$9*
0 Add four rect primitives between the rounded corners*
20,1,$1+$1,$2,$3,$4,$5,0*
20,1,$1+$1,$4,$5,$6,$7,0*
20,1,$1+$1,$6,$7,$8,$9,0*
20,1,$1+$1,$8,$9,$2,$3,0*%
G04 Aperture macros list end*
%TA.AperFunction,ComponentPad*%
%ADD10R,1.700000X1.700000*%
%TD*%
%TA.AperFunction,ComponentPad*%
%ADD11O,1.700000X1.700000*%
%TD*%
%TA.AperFunction,SMDPad,CuDef*%
%ADD12RoundRect,0.150000X-0.587500X-0.150000X0.587500X-0.150000X0.587500X0.150000X-0.587500X0.150000X0*%
%TD*%
%TA.AperFunction,SMDPad,CuDef*%
%ADD13RoundRect,0.375000X-0.625000X-0.375000X0.625000X-0.375000X0.625000X0.375000X-0.625000X0.375000X0*%
%TD*%
%TA.AperFunction,SMDPad,CuDef*%
%ADD14RoundRect,0.500000X-0.500000X-1.400000X0.500000X-1.400000X0.500000X1.400000X-0.500000X1.400000X0*%
%TD*%
%TA.AperFunction,SMDPad,CuDef*%
%ADD15RoundRect,0.250001X2.399999X-0.487499X2.399999X0.487499X-2.399999X0.487499X-2.399999X-0.487499X0*%
%TD*%
%TA.AperFunction,ComponentPad*%
%ADD16RoundRect,0.250000X0.600000X0.600000X-0.600000X0.600000X-0.600000X-0.600000X0.600000X-0.600000X0*%
%TD*%
%TA.AperFunction,ComponentPad*%
%ADD17C,1.700000*%
%TD*%
%TA.AperFunction,SMDPad,CuDef*%
%ADD18RoundRect,0.237500X-0.287500X-0.237500X0.287500X-0.237500X0.287500X0.237500X-0.287500X0.237500X0*%
%TD*%
%TA.AperFunction,SMDPad,CuDef*%
%ADD19RoundRect,0.237500X0.237500X-0.287500X0.237500X0.287500X-0.237500X0.287500X-0.237500X-0.287500X0*%
%TD*%
%TA.AperFunction,SMDPad,CuDef*%
%ADD20R,1.220000X0.910000*%
%TD*%
%TA.AperFunction,SMDPad,CuDef*%
%ADD21RoundRect,0.250000X0.475000X-0.337500X0.475000X0.337500X-0.475000X0.337500X-0.475000X-0.337500X0*%
%TD*%
%TA.AperFunction,SMDPad,CuDef*%
%ADD22RoundRect,0.250000X0.337500X0.475000X-0.337500X0.475000X-0.337500X-0.475000X0.337500X-0.475000X0*%
%TD*%
%TA.AperFunction,SMDPad,CuDef*%
%ADD23RoundRect,0.250000X-0.475000X0.337500X-0.475000X-0.337500X0.475000X-0.337500X0.475000X0.337500X0*%
%TD*%
%TA.AperFunction,ViaPad*%
%ADD24C,0.600000*%
%TD*%
%TA.AperFunction,Conductor*%
%ADD25C,0.500000*%
%TD*%
%TA.AperFunction,Conductor*%
%ADD26C,0.200000*%
%TD*%
%TA.AperFunction,Conductor*%
%ADD27C,0.330000*%
%TD*%
G04 APERTURE END LIST*
D10*
%TO.P,J2,1,Pin_1*%
%TO.N,GND*%
X90960000Y-68500000D03*
D11*
%TO.P,J2,2,Pin_2*%
%TO.N,VREF-10*%
X93500000Y-68500000D03*
%TO.P,J2,3,Pin_3*%
%TO.N,+3.3VA*%
X90960000Y-71040000D03*
%TO.P,J2,4,Pin_4*%
%TO.N,+3.3V*%
X93500000Y-71040000D03*
%TO.P,J2,5,Pin_5*%
%TO.N,-12V*%
X90960000Y-73580000D03*
%TO.P,J2,6,Pin_6*%
%TO.N,+12V*%
X93500000Y-73580000D03*
%TO.P,J2,7,Pin_7*%
%TO.N,+5V*%
X90960000Y-76120000D03*
%TO.P,J2,8,Pin_8*%
%TO.N,GND*%
X93500000Y-76120000D03*
%TD*%
D12*
%TO.P,U2,3,NC*%
%TO.N,unconnected-(U2-NC-Pad3)*%
X86437500Y-72000000D03*
%TO.P,U2,2,A*%
%TO.N,VREF-10*%
X84562500Y-72950000D03*
%TO.P,U2,1,K*%
%TO.N,GND*%
X84562500Y-71050000D03*
%TD*%
D13*
%TO.P,U1,3,VI*%
%TO.N,+5V*%
X75350000Y-88300000D03*
D14*
%TO.P,U1,2,VO*%
%TO.N,+3.3V*%
X81650000Y-86000000D03*
D13*
X75350000Y-86000000D03*
%TO.P,U1,1,GND*%
%TO.N,GND*%
X75350000Y-83700000D03*
%TD*%
D15*
%TO.P,R1,2*%
%TO.N,VREF-10*%
X86500000Y-79687500D03*
%TO.P,R1,1*%
%TO.N,-12V*%
X86500000Y-89312500D03*
%TD*%
D16*
%TO.P,J1,1,-12V*%
%TO.N,RACK-12V*%
X64000000Y-84280000D03*
D17*
%TO.P,J1,2,-12V*%
X61460000Y-84280000D03*
%TO.P,J1,3,GND*%
%TO.N,GND*%
X64000000Y-81740000D03*
%TO.P,J1,4,GND*%
X61460000Y-81740000D03*
%TO.P,J1,5,GND*%
X64000000Y-79200000D03*
%TO.P,J1,6,GND*%
X61460000Y-79200000D03*
%TO.P,J1,7,GND*%
X64000000Y-76660000D03*
%TO.P,J1,8,GND*%
X61460000Y-76660000D03*
%TO.P,J1,9,+12V*%
%TO.N,RACK+12V*%
X64000000Y-74120000D03*
%TO.P,J1,10,+12V*%
X61460000Y-74120000D03*
%TO.P,J1,11,+5V*%
%TO.N,RACK+5V*%
X64000000Y-71580000D03*
%TO.P,J1,12*%
X61460000Y-71580000D03*
%TO.P,J1,13,CV*%
%TO.N,unconnected-(J1-CV-Pad13)*%
X64000000Y-69040000D03*
%TO.P,J1,14*%
%TO.N,N/C*%
X61460000Y-69040000D03*
%TO.P,J1,15,GATE*%
%TO.N,unconnected-(J1-GATE-Pad15)*%
X64000000Y-66500000D03*
%TO.P,J1,16*%
%TO.N,N/C*%
X61460000Y-66500000D03*
%TD*%
D18*
%TO.P,FB4,2*%
%TO.N,+3.3VA*%
X77875000Y-81000000D03*
%TO.P,FB4,1*%
%TO.N,+3.3V*%
X76125000Y-81000000D03*
%TD*%
D19*
%TO.P,FB3,1*%
%TO.N,RACK-12V*%
X70000000Y-77750000D03*
%TO.P,FB3,2*%
%TO.N,Net-(D3-A)*%
X70000000Y-76000000D03*
%TD*%
%TO.P,FB2,2*%
%TO.N,Net-(D2-A)*%
X70000000Y-70000000D03*
%TO.P,FB2,1*%
%TO.N,RACK+12V*%
X70000000Y-71750000D03*
%TD*%
%TO.P,FB1,1*%
%TO.N,RACK+5V*%
X70000000Y-65875000D03*
%TO.P,FB1,2*%
%TO.N,Net-(D1-A)*%
X70000000Y-64125000D03*
%TD*%
D20*
%TO.P,D3,1,K*%
%TO.N,-12V*%
X73500000Y-78270000D03*
%TO.P,D3,2,A*%
%TO.N,Net-(D3-A)*%
X73500000Y-75000000D03*
%TD*%
%TO.P,D2,2,A*%
%TO.N,Net-(D2-A)*%
X73500000Y-72635000D03*
%TO.P,D2,1,K*%
%TO.N,+12V*%
X73500000Y-69365000D03*
%TD*%
%TO.P,D1,1,K*%
%TO.N,+5V*%
X73500000Y-66895000D03*
%TO.P,D1,2,A*%
%TO.N,Net-(D1-A)*%
X73500000Y-63625000D03*
%TD*%
D21*
%TO.P,C10,2*%
%TO.N,GND*%
X84500000Y-75500000D03*
%TO.P,C10,1*%
%TO.N,VREF-10*%
X84500000Y-77575000D03*
%TD*%
D22*
%TO.P,C9,2*%
%TO.N,GND*%
X70000000Y-85500000D03*
%TO.P,C9,1*%
%TO.N,+3.3V*%
X72075000Y-85500000D03*
%TD*%
%TO.P,C8,1*%
%TO.N,+3.3V*%
X72075000Y-82500000D03*
%TO.P,C8,2*%
%TO.N,GND*%
X70000000Y-82500000D03*
%TD*%
D21*
%TO.P,C7,2*%
%TO.N,GND*%
X81000000Y-64125000D03*
%TO.P,C7,1*%
%TO.N,+5V*%
X81000000Y-66200000D03*
%TD*%
%TO.P,C6,1*%
%TO.N,+5V*%
X77500000Y-66200000D03*
%TO.P,C6,2*%
%TO.N,GND*%
X77500000Y-64125000D03*
%TD*%
D22*
%TO.P,C5,2*%
%TO.N,GND*%
X70000000Y-88500000D03*
%TO.P,C5,1*%
%TO.N,+5V*%
X72075000Y-88500000D03*
%TD*%
D23*
%TO.P,C4,2*%
%TO.N,GND*%
X77500000Y-72075000D03*
%TO.P,C4,1*%
%TO.N,+12V*%
X77500000Y-70000000D03*
%TD*%
%TO.P,C3,2*%
%TO.N,GND*%
X81000000Y-72075000D03*
%TO.P,C3,1*%
%TO.N,+12V*%
X81000000Y-70000000D03*
%TD*%
D21*
%TO.P,C2,1*%
%TO.N,-12V*%
X77500000Y-77575000D03*
%TO.P,C2,2*%
%TO.N,GND*%
X77500000Y-75500000D03*
%TD*%
%TO.P,C1,1*%
%TO.N,-12V*%
X81000000Y-77575000D03*
%TO.P,C1,2*%
%TO.N,GND*%
X81000000Y-75500000D03*
%TD*%
D24*
%TO.N,+5V*%
X73500000Y-88300000D03*
%TO.N,-12V*%
X90500000Y-89500000D03*
X81000000Y-79500000D03*
%TO.N,GND*%
X73500000Y-84000000D03*
X70000000Y-80000000D03*
X83000000Y-64000000D03*
X83000000Y-72000000D03*
%TO.N,+3.3VA*%
X80000000Y-81000000D03*
%TO.N,+3.3V*%
X74000000Y-81000000D03*
%TO.N,+12V*%
X83000000Y-70000000D03*
%TO.N,+5V*%
X83200000Y-66200000D03*
%TD*%
D25*
%TO.N,+5V*%
X88000000Y-73160000D02*
X90960000Y-76120000D01*
X88000000Y-68500000D02*
X88000000Y-73160000D01*
X85700000Y-66200000D02*
X88000000Y-68500000D01*
X83200000Y-66200000D02*
X81000000Y-66200000D01*
X83200000Y-66200000D02*
X85700000Y-66200000D01*
X73500000Y-88300000D02*
X75350000Y-88300000D01*
D26*
X72275000Y-88300000D02*
X72075000Y-88500000D01*
D25*
X73500000Y-88300000D02*
X72275000Y-88300000D01*
D26*
%TO.N,VREF-10*%
X93312500Y-79687500D02*
X86500000Y-79687500D01*
X95500000Y-77500000D02*
X93312500Y-79687500D01*
X95500000Y-70500000D02*
X95500000Y-77500000D01*
X93500000Y-68500000D02*
X95500000Y-70500000D01*
X86000000Y-74500000D02*
X86000000Y-74387500D01*
D27*
X86000000Y-74387500D02*
X84562500Y-72950000D01*
X86000000Y-77000000D02*
X86000000Y-74500000D01*
D26*
%TO.N,+3.3V*%
X81125000Y-86000000D02*
X76125000Y-81000000D01*
X81650000Y-86000000D02*
X81125000Y-86000000D01*
D25*
%TO.N,+5V*%
X75150000Y-88500000D02*
X75350000Y-88300000D01*
D27*
%TO.N,-12V*%
X90312500Y-89312500D02*
X86500000Y-89312500D01*
X90500000Y-89500000D02*
X90312500Y-89312500D01*
X81000000Y-77575000D02*
X81000000Y-79500000D01*
%TO.N,VREF-10*%
X84500000Y-77575000D02*
X85425000Y-77575000D01*
X85425000Y-77575000D02*
X86000000Y-77000000D01*
X84500000Y-77575000D02*
X84500000Y-77687500D01*
X84500000Y-77687500D02*
X86500000Y-79687500D01*
D25*
%TO.N,GND*%
X70000000Y-83000000D02*
X70000000Y-80000000D01*
X73800000Y-83700000D02*
X73500000Y-84000000D01*
X75350000Y-83700000D02*
X73800000Y-83700000D01*
%TO.N,+3.3VA*%
X77875000Y-81000000D02*
X80000000Y-81000000D01*
%TO.N,+3.3V*%
X74000000Y-81000000D02*
X76125000Y-81000000D01*
X72500000Y-82500000D02*
X74000000Y-81000000D01*
X72075000Y-82500000D02*
X72500000Y-82500000D01*
%TO.N,RACK-12V*%
X68000000Y-79750000D02*
X70000000Y-77750000D01*
X68000000Y-82000000D02*
X68000000Y-79750000D01*
X65720000Y-84280000D02*
X68000000Y-82000000D01*
X64000000Y-84280000D02*
X65720000Y-84280000D01*
%TO.N,GND*%
X82875000Y-64125000D02*
X83000000Y-64000000D01*
X81000000Y-64125000D02*
X82875000Y-64125000D01*
X84500000Y-75500000D02*
X81000000Y-75500000D01*
X83950000Y-71050000D02*
X83000000Y-72000000D01*
X84562500Y-71050000D02*
X83950000Y-71050000D01*
X81000000Y-72075000D02*
X82925000Y-72075000D01*
X82925000Y-72075000D02*
X83000000Y-72000000D01*
X69740000Y-82740000D02*
X70000000Y-83000000D01*
%TO.N,+12V*%
X81000000Y-70000000D02*
X83000000Y-70000000D01*
%TO.N,GND*%
X70000000Y-88000000D02*
X70000000Y-85500000D01*
X70000000Y-85500000D02*
X70000000Y-83000000D01*
%TO.N,+3.3V*%
X72075000Y-85500000D02*
X75775000Y-85500000D01*
X72075000Y-83000000D02*
X72075000Y-85500000D01*
%TO.N,RACK-12V*%
X61460000Y-84280000D02*
X64000000Y-84280000D01*
%TO.N,RACK+12V*%
X61460000Y-74120000D02*
X64000000Y-74120000D01*
%TO.N,RACK+5V*%
X61460000Y-71580000D02*
X64000000Y-71580000D01*
%TO.N,GND*%
X81000000Y-72075000D02*
X81000000Y-75500000D01*
X77500000Y-72075000D02*
X77500000Y-75500000D01*
X77500000Y-64125000D02*
X81000000Y-64125000D01*
X77500000Y-72075000D02*
X81000000Y-72075000D01*
X77500000Y-75500000D02*
X81000000Y-75500000D01*
%TO.N,-12V*%
X77500000Y-77575000D02*
X81000000Y-77575000D01*
X76805000Y-78270000D02*
X77500000Y-77575000D01*
X73500000Y-78270000D02*
X76805000Y-78270000D01*
%TO.N,+12V*%
X77500000Y-70000000D02*
X81000000Y-70000000D01*
X76865000Y-69365000D02*
X77500000Y-70000000D01*
X73500000Y-69365000D02*
X76865000Y-69365000D01*
%TO.N,+5V*%
X77500000Y-66200000D02*
X81000000Y-66200000D01*
X76805000Y-66895000D02*
X77500000Y-66200000D01*
X73500000Y-66895000D02*
X76805000Y-66895000D01*
%TO.N,Net-(D1-A)*%
X73000000Y-64125000D02*
X73500000Y-63625000D01*
X70000000Y-64125000D02*
X73000000Y-64125000D01*
%TO.N,Net-(D2-A)*%
X72635000Y-72635000D02*
X73500000Y-72635000D01*
X71500000Y-71500000D02*
X72635000Y-72635000D01*
X71500000Y-71000000D02*
X71500000Y-71500000D01*
X70500000Y-70000000D02*
X71500000Y-71000000D01*
X70000000Y-70000000D02*
X70500000Y-70000000D01*
%TO.N,RACK+12V*%
X70000000Y-72000000D02*
X70000000Y-71750000D01*
X67880000Y-74120000D02*
X70000000Y-72000000D01*
X64000000Y-74120000D02*
X67880000Y-74120000D01*
%TO.N,RACK+5V*%
X70000000Y-66500000D02*
X70000000Y-65875000D01*
X67580000Y-68000000D02*
X68500000Y-68000000D01*
X64000000Y-71580000D02*
X67580000Y-68000000D01*
X68500000Y-68000000D02*
X70000000Y-66500000D01*
%TO.N,Net-(D3-A)*%
X71000000Y-75000000D02*
X70000000Y-76000000D01*
X73500000Y-75000000D02*
X71000000Y-75000000D01*
%TD*%
M02*
