%TF.GenerationSoftware,KiCad,Pcbnew,8.0.2*%
%TF.CreationDate,2024-09-09T09:37:15-05:00*%
%TF.ProjectId,wh3lk,7768336c-6b2e-46b6-9963-61645f706362,v2.0.0a*%
%TF.SameCoordinates,Original*%
%TF.FileFunction,Drillmap*%
%TF.FilePolarity,Positive*%
%FSLAX45Y45*%
G04 Gerber Fmt 4.5, Leading zero omitted, Abs format (unit mm)*
G04 Created by KiCad (PCBNEW 8.0.2) date 2024-09-09 09:37:15*
%MOMM*%
%LPD*%
G01*
G04 APERTURE LIST*
%ADD10C,0.050000*%
%ADD11C,0.200000*%
%ADD12C,0.100000*%
G04 APERTURE END LIST*
D10*
X5650000Y-5850000D02*
X9800000Y-5850000D01*
X9800000Y-9200000D01*
X5650000Y-9200000D01*
X5650000Y-5850000D01*
D11*
D12*
X6985000Y-7985000D02*
X7015000Y-8015000D01*
X7015000Y-7985000D02*
X6985000Y-8015000D01*
X7335000Y-8385000D02*
X7365000Y-8415000D01*
X7365000Y-8385000D02*
X7335000Y-8415000D01*
X7335000Y-8815000D02*
X7365000Y-8845000D01*
X7365000Y-8815000D02*
X7335000Y-8845000D01*
X7385000Y-8085000D02*
X7415000Y-8115000D01*
X7415000Y-8085000D02*
X7385000Y-8115000D01*
X7985000Y-8085000D02*
X8015000Y-8115000D01*
X8015000Y-8085000D02*
X7985000Y-8115000D01*
X8085000Y-7935000D02*
X8115000Y-7965000D01*
X8115000Y-7935000D02*
X8085000Y-7965000D01*
X8285000Y-6385000D02*
X8315000Y-6415000D01*
X8315000Y-6385000D02*
X8285000Y-6415000D01*
X8285000Y-6985000D02*
X8315000Y-7015000D01*
X8315000Y-6985000D02*
X8285000Y-7015000D01*
X8285000Y-7185000D02*
X8315000Y-7215000D01*
X8315000Y-7185000D02*
X8285000Y-7215000D01*
X8305000Y-6605000D02*
X8335000Y-6635000D01*
X8335000Y-6605000D02*
X8305000Y-6635000D01*
X9035000Y-8935000D02*
X9065000Y-8965000D01*
X9065000Y-8935000D02*
X9035000Y-8965000D01*
X6196000Y-6650000D02*
G75*
G02*
X6096000Y-6650000I-50000J0D01*
G01*
X6096000Y-6650000D02*
G75*
G02*
X6196000Y-6650000I50000J0D01*
G01*
X6196000Y-6904000D02*
G75*
G02*
X6096000Y-6904000I-50000J0D01*
G01*
X6096000Y-6904000D02*
G75*
G02*
X6196000Y-6904000I50000J0D01*
G01*
X6196000Y-7158000D02*
G75*
G02*
X6096000Y-7158000I-50000J0D01*
G01*
X6096000Y-7158000D02*
G75*
G02*
X6196000Y-7158000I50000J0D01*
G01*
X6196000Y-7412000D02*
G75*
G02*
X6096000Y-7412000I-50000J0D01*
G01*
X6096000Y-7412000D02*
G75*
G02*
X6196000Y-7412000I50000J0D01*
G01*
X6196000Y-7666000D02*
G75*
G02*
X6096000Y-7666000I-50000J0D01*
G01*
X6096000Y-7666000D02*
G75*
G02*
X6196000Y-7666000I50000J0D01*
G01*
X6196000Y-7920000D02*
G75*
G02*
X6096000Y-7920000I-50000J0D01*
G01*
X6096000Y-7920000D02*
G75*
G02*
X6196000Y-7920000I50000J0D01*
G01*
X6196000Y-8174000D02*
G75*
G02*
X6096000Y-8174000I-50000J0D01*
G01*
X6096000Y-8174000D02*
G75*
G02*
X6196000Y-8174000I50000J0D01*
G01*
X6196000Y-8428000D02*
G75*
G02*
X6096000Y-8428000I-50000J0D01*
G01*
X6096000Y-8428000D02*
G75*
G02*
X6196000Y-8428000I50000J0D01*
G01*
X6450000Y-6650000D02*
G75*
G02*
X6350000Y-6650000I-50000J0D01*
G01*
X6350000Y-6650000D02*
G75*
G02*
X6450000Y-6650000I50000J0D01*
G01*
X6450000Y-6904000D02*
G75*
G02*
X6350000Y-6904000I-50000J0D01*
G01*
X6350000Y-6904000D02*
G75*
G02*
X6450000Y-6904000I50000J0D01*
G01*
X6450000Y-7158000D02*
G75*
G02*
X6350000Y-7158000I-50000J0D01*
G01*
X6350000Y-7158000D02*
G75*
G02*
X6450000Y-7158000I50000J0D01*
G01*
X6450000Y-7412000D02*
G75*
G02*
X6350000Y-7412000I-50000J0D01*
G01*
X6350000Y-7412000D02*
G75*
G02*
X6450000Y-7412000I50000J0D01*
G01*
X6450000Y-7666000D02*
G75*
G02*
X6350000Y-7666000I-50000J0D01*
G01*
X6350000Y-7666000D02*
G75*
G02*
X6450000Y-7666000I50000J0D01*
G01*
X6450000Y-7920000D02*
G75*
G02*
X6350000Y-7920000I-50000J0D01*
G01*
X6350000Y-7920000D02*
G75*
G02*
X6450000Y-7920000I50000J0D01*
G01*
X6450000Y-8174000D02*
G75*
G02*
X6350000Y-8174000I-50000J0D01*
G01*
X6350000Y-8174000D02*
G75*
G02*
X6450000Y-8174000I50000J0D01*
G01*
X6450000Y-8428000D02*
G75*
G02*
X6350000Y-8428000I-50000J0D01*
G01*
X6350000Y-8428000D02*
G75*
G02*
X6450000Y-8428000I50000J0D01*
G01*
X9146000Y-6850000D02*
G75*
G02*
X9046000Y-6850000I-50000J0D01*
G01*
X9046000Y-6850000D02*
G75*
G02*
X9146000Y-6850000I50000J0D01*
G01*
X9146000Y-7104000D02*
G75*
G02*
X9046000Y-7104000I-50000J0D01*
G01*
X9046000Y-7104000D02*
G75*
G02*
X9146000Y-7104000I50000J0D01*
G01*
X9146000Y-7358000D02*
G75*
G02*
X9046000Y-7358000I-50000J0D01*
G01*
X9046000Y-7358000D02*
G75*
G02*
X9146000Y-7358000I50000J0D01*
G01*
X9146000Y-7612000D02*
G75*
G02*
X9046000Y-7612000I-50000J0D01*
G01*
X9046000Y-7612000D02*
G75*
G02*
X9146000Y-7612000I50000J0D01*
G01*
X9400000Y-6850000D02*
G75*
G02*
X9300000Y-6850000I-50000J0D01*
G01*
X9300000Y-6850000D02*
G75*
G02*
X9400000Y-6850000I50000J0D01*
G01*
X9400000Y-7104000D02*
G75*
G02*
X9300000Y-7104000I-50000J0D01*
G01*
X9300000Y-7104000D02*
G75*
G02*
X9400000Y-7104000I50000J0D01*
G01*
X9400000Y-7358000D02*
G75*
G02*
X9300000Y-7358000I-50000J0D01*
G01*
X9300000Y-7358000D02*
G75*
G02*
X9400000Y-7358000I50000J0D01*
G01*
X9400000Y-7612000D02*
G75*
G02*
X9300000Y-7612000I-50000J0D01*
G01*
X9300000Y-7612000D02*
G75*
G02*
X9400000Y-7612000I50000J0D01*
G01*
D11*
X5908277Y-9513984D02*
X5908277Y-9313984D01*
X5908277Y-9313984D02*
X5955896Y-9313984D01*
X5955896Y-9313984D02*
X5984467Y-9323508D01*
X5984467Y-9323508D02*
X6003515Y-9342555D01*
X6003515Y-9342555D02*
X6013039Y-9361603D01*
X6013039Y-9361603D02*
X6022562Y-9399698D01*
X6022562Y-9399698D02*
X6022562Y-9428270D01*
X6022562Y-9428270D02*
X6013039Y-9466365D01*
X6013039Y-9466365D02*
X6003515Y-9485412D01*
X6003515Y-9485412D02*
X5984467Y-9504460D01*
X5984467Y-9504460D02*
X5955896Y-9513984D01*
X5955896Y-9513984D02*
X5908277Y-9513984D01*
X6108277Y-9513984D02*
X6108277Y-9380650D01*
X6108277Y-9418746D02*
X6117801Y-9399698D01*
X6117801Y-9399698D02*
X6127324Y-9390174D01*
X6127324Y-9390174D02*
X6146372Y-9380650D01*
X6146372Y-9380650D02*
X6165420Y-9380650D01*
X6232086Y-9513984D02*
X6232086Y-9380650D01*
X6232086Y-9313984D02*
X6222562Y-9323508D01*
X6222562Y-9323508D02*
X6232086Y-9333031D01*
X6232086Y-9333031D02*
X6241610Y-9323508D01*
X6241610Y-9323508D02*
X6232086Y-9313984D01*
X6232086Y-9313984D02*
X6232086Y-9333031D01*
X6355896Y-9513984D02*
X6336848Y-9504460D01*
X6336848Y-9504460D02*
X6327324Y-9485412D01*
X6327324Y-9485412D02*
X6327324Y-9313984D01*
X6460658Y-9513984D02*
X6441610Y-9504460D01*
X6441610Y-9504460D02*
X6432086Y-9485412D01*
X6432086Y-9485412D02*
X6432086Y-9313984D01*
X6689229Y-9513984D02*
X6689229Y-9313984D01*
X6689229Y-9313984D02*
X6755896Y-9456841D01*
X6755896Y-9456841D02*
X6822562Y-9313984D01*
X6822562Y-9313984D02*
X6822562Y-9513984D01*
X7003515Y-9513984D02*
X7003515Y-9409222D01*
X7003515Y-9409222D02*
X6993991Y-9390174D01*
X6993991Y-9390174D02*
X6974943Y-9380650D01*
X6974943Y-9380650D02*
X6936848Y-9380650D01*
X6936848Y-9380650D02*
X6917801Y-9390174D01*
X7003515Y-9504460D02*
X6984467Y-9513984D01*
X6984467Y-9513984D02*
X6936848Y-9513984D01*
X6936848Y-9513984D02*
X6917801Y-9504460D01*
X6917801Y-9504460D02*
X6908277Y-9485412D01*
X6908277Y-9485412D02*
X6908277Y-9466365D01*
X6908277Y-9466365D02*
X6917801Y-9447317D01*
X6917801Y-9447317D02*
X6936848Y-9437793D01*
X6936848Y-9437793D02*
X6984467Y-9437793D01*
X6984467Y-9437793D02*
X7003515Y-9428270D01*
X7098753Y-9380650D02*
X7098753Y-9580650D01*
X7098753Y-9390174D02*
X7117801Y-9380650D01*
X7117801Y-9380650D02*
X7155896Y-9380650D01*
X7155896Y-9380650D02*
X7174943Y-9390174D01*
X7174943Y-9390174D02*
X7184467Y-9399698D01*
X7184467Y-9399698D02*
X7193991Y-9418746D01*
X7193991Y-9418746D02*
X7193991Y-9475889D01*
X7193991Y-9475889D02*
X7184467Y-9494936D01*
X7184467Y-9494936D02*
X7174943Y-9504460D01*
X7174943Y-9504460D02*
X7155896Y-9513984D01*
X7155896Y-9513984D02*
X7117801Y-9513984D01*
X7117801Y-9513984D02*
X7098753Y-9504460D01*
X7279705Y-9494936D02*
X7289229Y-9504460D01*
X7289229Y-9504460D02*
X7279705Y-9513984D01*
X7279705Y-9513984D02*
X7270182Y-9504460D01*
X7270182Y-9504460D02*
X7279705Y-9494936D01*
X7279705Y-9494936D02*
X7279705Y-9513984D01*
X7279705Y-9390174D02*
X7289229Y-9399698D01*
X7289229Y-9399698D02*
X7279705Y-9409222D01*
X7279705Y-9409222D02*
X7270182Y-9399698D01*
X7270182Y-9399698D02*
X7279705Y-9390174D01*
X7279705Y-9390174D02*
X7279705Y-9409222D01*
D12*
X5617500Y-9827500D02*
X5647500Y-9857500D01*
X5647500Y-9827500D02*
X5617500Y-9857500D01*
D11*
X5946372Y-9733984D02*
X5965420Y-9733984D01*
X5965420Y-9733984D02*
X5984467Y-9743508D01*
X5984467Y-9743508D02*
X5993991Y-9753031D01*
X5993991Y-9753031D02*
X6003515Y-9772079D01*
X6003515Y-9772079D02*
X6013039Y-9810174D01*
X6013039Y-9810174D02*
X6013039Y-9857793D01*
X6013039Y-9857793D02*
X6003515Y-9895889D01*
X6003515Y-9895889D02*
X5993991Y-9914936D01*
X5993991Y-9914936D02*
X5984467Y-9924460D01*
X5984467Y-9924460D02*
X5965420Y-9933984D01*
X5965420Y-9933984D02*
X5946372Y-9933984D01*
X5946372Y-9933984D02*
X5927324Y-9924460D01*
X5927324Y-9924460D02*
X5917801Y-9914936D01*
X5917801Y-9914936D02*
X5908277Y-9895889D01*
X5908277Y-9895889D02*
X5898753Y-9857793D01*
X5898753Y-9857793D02*
X5898753Y-9810174D01*
X5898753Y-9810174D02*
X5908277Y-9772079D01*
X5908277Y-9772079D02*
X5917801Y-9753031D01*
X5917801Y-9753031D02*
X5927324Y-9743508D01*
X5927324Y-9743508D02*
X5946372Y-9733984D01*
X6098753Y-9914936D02*
X6108277Y-9924460D01*
X6108277Y-9924460D02*
X6098753Y-9933984D01*
X6098753Y-9933984D02*
X6089229Y-9924460D01*
X6089229Y-9924460D02*
X6098753Y-9914936D01*
X6098753Y-9914936D02*
X6098753Y-9933984D01*
X6174943Y-9733984D02*
X6298753Y-9733984D01*
X6298753Y-9733984D02*
X6232086Y-9810174D01*
X6232086Y-9810174D02*
X6260658Y-9810174D01*
X6260658Y-9810174D02*
X6279705Y-9819698D01*
X6279705Y-9819698D02*
X6289229Y-9829222D01*
X6289229Y-9829222D02*
X6298753Y-9848270D01*
X6298753Y-9848270D02*
X6298753Y-9895889D01*
X6298753Y-9895889D02*
X6289229Y-9914936D01*
X6289229Y-9914936D02*
X6279705Y-9924460D01*
X6279705Y-9924460D02*
X6260658Y-9933984D01*
X6260658Y-9933984D02*
X6203515Y-9933984D01*
X6203515Y-9933984D02*
X6184467Y-9924460D01*
X6184467Y-9924460D02*
X6174943Y-9914936D01*
X6422562Y-9733984D02*
X6441610Y-9733984D01*
X6441610Y-9733984D02*
X6460658Y-9743508D01*
X6460658Y-9743508D02*
X6470182Y-9753031D01*
X6470182Y-9753031D02*
X6479705Y-9772079D01*
X6479705Y-9772079D02*
X6489229Y-9810174D01*
X6489229Y-9810174D02*
X6489229Y-9857793D01*
X6489229Y-9857793D02*
X6479705Y-9895889D01*
X6479705Y-9895889D02*
X6470182Y-9914936D01*
X6470182Y-9914936D02*
X6460658Y-9924460D01*
X6460658Y-9924460D02*
X6441610Y-9933984D01*
X6441610Y-9933984D02*
X6422562Y-9933984D01*
X6422562Y-9933984D02*
X6403515Y-9924460D01*
X6403515Y-9924460D02*
X6393991Y-9914936D01*
X6393991Y-9914936D02*
X6384467Y-9895889D01*
X6384467Y-9895889D02*
X6374943Y-9857793D01*
X6374943Y-9857793D02*
X6374943Y-9810174D01*
X6374943Y-9810174D02*
X6384467Y-9772079D01*
X6384467Y-9772079D02*
X6393991Y-9753031D01*
X6393991Y-9753031D02*
X6403515Y-9743508D01*
X6403515Y-9743508D02*
X6422562Y-9733984D01*
X6613039Y-9733984D02*
X6632086Y-9733984D01*
X6632086Y-9733984D02*
X6651134Y-9743508D01*
X6651134Y-9743508D02*
X6660658Y-9753031D01*
X6660658Y-9753031D02*
X6670182Y-9772079D01*
X6670182Y-9772079D02*
X6679705Y-9810174D01*
X6679705Y-9810174D02*
X6679705Y-9857793D01*
X6679705Y-9857793D02*
X6670182Y-9895889D01*
X6670182Y-9895889D02*
X6660658Y-9914936D01*
X6660658Y-9914936D02*
X6651134Y-9924460D01*
X6651134Y-9924460D02*
X6632086Y-9933984D01*
X6632086Y-9933984D02*
X6613039Y-9933984D01*
X6613039Y-9933984D02*
X6593991Y-9924460D01*
X6593991Y-9924460D02*
X6584467Y-9914936D01*
X6584467Y-9914936D02*
X6574943Y-9895889D01*
X6574943Y-9895889D02*
X6565420Y-9857793D01*
X6565420Y-9857793D02*
X6565420Y-9810174D01*
X6565420Y-9810174D02*
X6574943Y-9772079D01*
X6574943Y-9772079D02*
X6584467Y-9753031D01*
X6584467Y-9753031D02*
X6593991Y-9743508D01*
X6593991Y-9743508D02*
X6613039Y-9733984D01*
X6765420Y-9933984D02*
X6765420Y-9800650D01*
X6765420Y-9819698D02*
X6774943Y-9810174D01*
X6774943Y-9810174D02*
X6793991Y-9800650D01*
X6793991Y-9800650D02*
X6822563Y-9800650D01*
X6822563Y-9800650D02*
X6841610Y-9810174D01*
X6841610Y-9810174D02*
X6851134Y-9829222D01*
X6851134Y-9829222D02*
X6851134Y-9933984D01*
X6851134Y-9829222D02*
X6860658Y-9810174D01*
X6860658Y-9810174D02*
X6879705Y-9800650D01*
X6879705Y-9800650D02*
X6908277Y-9800650D01*
X6908277Y-9800650D02*
X6927324Y-9810174D01*
X6927324Y-9810174D02*
X6936848Y-9829222D01*
X6936848Y-9829222D02*
X6936848Y-9933984D01*
X7032086Y-9933984D02*
X7032086Y-9800650D01*
X7032086Y-9819698D02*
X7041610Y-9810174D01*
X7041610Y-9810174D02*
X7060658Y-9800650D01*
X7060658Y-9800650D02*
X7089229Y-9800650D01*
X7089229Y-9800650D02*
X7108277Y-9810174D01*
X7108277Y-9810174D02*
X7117801Y-9829222D01*
X7117801Y-9829222D02*
X7117801Y-9933984D01*
X7117801Y-9829222D02*
X7127324Y-9810174D01*
X7127324Y-9810174D02*
X7146372Y-9800650D01*
X7146372Y-9800650D02*
X7174943Y-9800650D01*
X7174943Y-9800650D02*
X7193991Y-9810174D01*
X7193991Y-9810174D02*
X7203515Y-9829222D01*
X7203515Y-9829222D02*
X7203515Y-9933984D01*
X7593991Y-9724460D02*
X7422563Y-9981603D01*
X7851134Y-9733984D02*
X7870182Y-9733984D01*
X7870182Y-9733984D02*
X7889229Y-9743508D01*
X7889229Y-9743508D02*
X7898753Y-9753031D01*
X7898753Y-9753031D02*
X7908277Y-9772079D01*
X7908277Y-9772079D02*
X7917801Y-9810174D01*
X7917801Y-9810174D02*
X7917801Y-9857793D01*
X7917801Y-9857793D02*
X7908277Y-9895889D01*
X7908277Y-9895889D02*
X7898753Y-9914936D01*
X7898753Y-9914936D02*
X7889229Y-9924460D01*
X7889229Y-9924460D02*
X7870182Y-9933984D01*
X7870182Y-9933984D02*
X7851134Y-9933984D01*
X7851134Y-9933984D02*
X7832086Y-9924460D01*
X7832086Y-9924460D02*
X7822563Y-9914936D01*
X7822563Y-9914936D02*
X7813039Y-9895889D01*
X7813039Y-9895889D02*
X7803515Y-9857793D01*
X7803515Y-9857793D02*
X7803515Y-9810174D01*
X7803515Y-9810174D02*
X7813039Y-9772079D01*
X7813039Y-9772079D02*
X7822563Y-9753031D01*
X7822563Y-9753031D02*
X7832086Y-9743508D01*
X7832086Y-9743508D02*
X7851134Y-9733984D01*
X8003515Y-9914936D02*
X8013039Y-9924460D01*
X8013039Y-9924460D02*
X8003515Y-9933984D01*
X8003515Y-9933984D02*
X7993991Y-9924460D01*
X7993991Y-9924460D02*
X8003515Y-9914936D01*
X8003515Y-9914936D02*
X8003515Y-9933984D01*
X8136848Y-9733984D02*
X8155896Y-9733984D01*
X8155896Y-9733984D02*
X8174944Y-9743508D01*
X8174944Y-9743508D02*
X8184467Y-9753031D01*
X8184467Y-9753031D02*
X8193991Y-9772079D01*
X8193991Y-9772079D02*
X8203515Y-9810174D01*
X8203515Y-9810174D02*
X8203515Y-9857793D01*
X8203515Y-9857793D02*
X8193991Y-9895889D01*
X8193991Y-9895889D02*
X8184467Y-9914936D01*
X8184467Y-9914936D02*
X8174944Y-9924460D01*
X8174944Y-9924460D02*
X8155896Y-9933984D01*
X8155896Y-9933984D02*
X8136848Y-9933984D01*
X8136848Y-9933984D02*
X8117801Y-9924460D01*
X8117801Y-9924460D02*
X8108277Y-9914936D01*
X8108277Y-9914936D02*
X8098753Y-9895889D01*
X8098753Y-9895889D02*
X8089229Y-9857793D01*
X8089229Y-9857793D02*
X8089229Y-9810174D01*
X8089229Y-9810174D02*
X8098753Y-9772079D01*
X8098753Y-9772079D02*
X8108277Y-9753031D01*
X8108277Y-9753031D02*
X8117801Y-9743508D01*
X8117801Y-9743508D02*
X8136848Y-9733984D01*
X8393991Y-9933984D02*
X8279706Y-9933984D01*
X8336848Y-9933984D02*
X8336848Y-9733984D01*
X8336848Y-9733984D02*
X8317801Y-9762555D01*
X8317801Y-9762555D02*
X8298753Y-9781603D01*
X8298753Y-9781603D02*
X8279706Y-9791127D01*
X8584468Y-9933984D02*
X8470182Y-9933984D01*
X8527325Y-9933984D02*
X8527325Y-9733984D01*
X8527325Y-9733984D02*
X8508277Y-9762555D01*
X8508277Y-9762555D02*
X8489229Y-9781603D01*
X8489229Y-9781603D02*
X8470182Y-9791127D01*
X8698753Y-9819698D02*
X8679706Y-9810174D01*
X8679706Y-9810174D02*
X8670182Y-9800650D01*
X8670182Y-9800650D02*
X8660658Y-9781603D01*
X8660658Y-9781603D02*
X8660658Y-9772079D01*
X8660658Y-9772079D02*
X8670182Y-9753031D01*
X8670182Y-9753031D02*
X8679706Y-9743508D01*
X8679706Y-9743508D02*
X8698753Y-9733984D01*
X8698753Y-9733984D02*
X8736849Y-9733984D01*
X8736849Y-9733984D02*
X8755896Y-9743508D01*
X8755896Y-9743508D02*
X8765420Y-9753031D01*
X8765420Y-9753031D02*
X8774944Y-9772079D01*
X8774944Y-9772079D02*
X8774944Y-9781603D01*
X8774944Y-9781603D02*
X8765420Y-9800650D01*
X8765420Y-9800650D02*
X8755896Y-9810174D01*
X8755896Y-9810174D02*
X8736849Y-9819698D01*
X8736849Y-9819698D02*
X8698753Y-9819698D01*
X8698753Y-9819698D02*
X8679706Y-9829222D01*
X8679706Y-9829222D02*
X8670182Y-9838746D01*
X8670182Y-9838746D02*
X8660658Y-9857793D01*
X8660658Y-9857793D02*
X8660658Y-9895889D01*
X8660658Y-9895889D02*
X8670182Y-9914936D01*
X8670182Y-9914936D02*
X8679706Y-9924460D01*
X8679706Y-9924460D02*
X8698753Y-9933984D01*
X8698753Y-9933984D02*
X8736849Y-9933984D01*
X8736849Y-9933984D02*
X8755896Y-9924460D01*
X8755896Y-9924460D02*
X8765420Y-9914936D01*
X8765420Y-9914936D02*
X8774944Y-9895889D01*
X8774944Y-9895889D02*
X8774944Y-9857793D01*
X8774944Y-9857793D02*
X8765420Y-9838746D01*
X8765420Y-9838746D02*
X8755896Y-9829222D01*
X8755896Y-9829222D02*
X8736849Y-9819698D01*
X8851134Y-9733984D02*
X8851134Y-9772079D01*
X8927325Y-9733984D02*
X8927325Y-9772079D01*
X9222563Y-10010174D02*
X9213039Y-10000650D01*
X9213039Y-10000650D02*
X9193991Y-9972079D01*
X9193991Y-9972079D02*
X9184468Y-9953031D01*
X9184468Y-9953031D02*
X9174944Y-9924460D01*
X9174944Y-9924460D02*
X9165420Y-9876841D01*
X9165420Y-9876841D02*
X9165420Y-9838746D01*
X9165420Y-9838746D02*
X9174944Y-9791127D01*
X9174944Y-9791127D02*
X9184468Y-9762555D01*
X9184468Y-9762555D02*
X9193991Y-9743508D01*
X9193991Y-9743508D02*
X9213039Y-9714936D01*
X9213039Y-9714936D02*
X9222563Y-9705412D01*
X9403515Y-9933984D02*
X9289230Y-9933984D01*
X9346372Y-9933984D02*
X9346372Y-9733984D01*
X9346372Y-9733984D02*
X9327325Y-9762555D01*
X9327325Y-9762555D02*
X9308277Y-9781603D01*
X9308277Y-9781603D02*
X9289230Y-9791127D01*
X9593991Y-9933984D02*
X9479706Y-9933984D01*
X9536849Y-9933984D02*
X9536849Y-9733984D01*
X9536849Y-9733984D02*
X9517801Y-9762555D01*
X9517801Y-9762555D02*
X9498753Y-9781603D01*
X9498753Y-9781603D02*
X9479706Y-9791127D01*
X9832087Y-9933984D02*
X9832087Y-9733984D01*
X9917801Y-9933984D02*
X9917801Y-9829222D01*
X9917801Y-9829222D02*
X9908277Y-9810174D01*
X9908277Y-9810174D02*
X9889230Y-9800650D01*
X9889230Y-9800650D02*
X9860658Y-9800650D01*
X9860658Y-9800650D02*
X9841611Y-9810174D01*
X9841611Y-9810174D02*
X9832087Y-9819698D01*
X10041611Y-9933984D02*
X10022563Y-9924460D01*
X10022563Y-9924460D02*
X10013039Y-9914936D01*
X10013039Y-9914936D02*
X10003515Y-9895889D01*
X10003515Y-9895889D02*
X10003515Y-9838746D01*
X10003515Y-9838746D02*
X10013039Y-9819698D01*
X10013039Y-9819698D02*
X10022563Y-9810174D01*
X10022563Y-9810174D02*
X10041611Y-9800650D01*
X10041611Y-9800650D02*
X10070182Y-9800650D01*
X10070182Y-9800650D02*
X10089230Y-9810174D01*
X10089230Y-9810174D02*
X10098753Y-9819698D01*
X10098753Y-9819698D02*
X10108277Y-9838746D01*
X10108277Y-9838746D02*
X10108277Y-9895889D01*
X10108277Y-9895889D02*
X10098753Y-9914936D01*
X10098753Y-9914936D02*
X10089230Y-9924460D01*
X10089230Y-9924460D02*
X10070182Y-9933984D01*
X10070182Y-9933984D02*
X10041611Y-9933984D01*
X10222563Y-9933984D02*
X10203515Y-9924460D01*
X10203515Y-9924460D02*
X10193992Y-9905412D01*
X10193992Y-9905412D02*
X10193992Y-9733984D01*
X10374944Y-9924460D02*
X10355896Y-9933984D01*
X10355896Y-9933984D02*
X10317801Y-9933984D01*
X10317801Y-9933984D02*
X10298753Y-9924460D01*
X10298753Y-9924460D02*
X10289230Y-9905412D01*
X10289230Y-9905412D02*
X10289230Y-9829222D01*
X10289230Y-9829222D02*
X10298753Y-9810174D01*
X10298753Y-9810174D02*
X10317801Y-9800650D01*
X10317801Y-9800650D02*
X10355896Y-9800650D01*
X10355896Y-9800650D02*
X10374944Y-9810174D01*
X10374944Y-9810174D02*
X10384468Y-9829222D01*
X10384468Y-9829222D02*
X10384468Y-9848270D01*
X10384468Y-9848270D02*
X10289230Y-9867317D01*
X10460658Y-9924460D02*
X10479706Y-9933984D01*
X10479706Y-9933984D02*
X10517801Y-9933984D01*
X10517801Y-9933984D02*
X10536849Y-9924460D01*
X10536849Y-9924460D02*
X10546373Y-9905412D01*
X10546373Y-9905412D02*
X10546373Y-9895889D01*
X10546373Y-9895889D02*
X10536849Y-9876841D01*
X10536849Y-9876841D02*
X10517801Y-9867317D01*
X10517801Y-9867317D02*
X10489230Y-9867317D01*
X10489230Y-9867317D02*
X10470182Y-9857793D01*
X10470182Y-9857793D02*
X10460658Y-9838746D01*
X10460658Y-9838746D02*
X10460658Y-9829222D01*
X10460658Y-9829222D02*
X10470182Y-9810174D01*
X10470182Y-9810174D02*
X10489230Y-9800650D01*
X10489230Y-9800650D02*
X10517801Y-9800650D01*
X10517801Y-9800650D02*
X10536849Y-9810174D01*
X10613039Y-10010174D02*
X10622563Y-10000650D01*
X10622563Y-10000650D02*
X10641611Y-9972079D01*
X10641611Y-9972079D02*
X10651134Y-9953031D01*
X10651134Y-9953031D02*
X10660658Y-9924460D01*
X10660658Y-9924460D02*
X10670182Y-9876841D01*
X10670182Y-9876841D02*
X10670182Y-9838746D01*
X10670182Y-9838746D02*
X10660658Y-9791127D01*
X10660658Y-9791127D02*
X10651134Y-9762555D01*
X10651134Y-9762555D02*
X10641611Y-9743508D01*
X10641611Y-9743508D02*
X10622563Y-9714936D01*
X10622563Y-9714936D02*
X10613039Y-9705412D01*
D12*
X5647500Y-10106500D02*
G75*
G02*
X5547500Y-10106500I-50000J0D01*
G01*
X5547500Y-10106500D02*
G75*
G02*
X5647500Y-10106500I50000J0D01*
G01*
D11*
X6013039Y-10197984D02*
X5898753Y-10197984D01*
X5955896Y-10197984D02*
X5955896Y-9997984D01*
X5955896Y-9997984D02*
X5936848Y-10026555D01*
X5936848Y-10026555D02*
X5917801Y-10045603D01*
X5917801Y-10045603D02*
X5898753Y-10055127D01*
X6098753Y-10178936D02*
X6108277Y-10188460D01*
X6108277Y-10188460D02*
X6098753Y-10197984D01*
X6098753Y-10197984D02*
X6089229Y-10188460D01*
X6089229Y-10188460D02*
X6098753Y-10178936D01*
X6098753Y-10178936D02*
X6098753Y-10197984D01*
X6232086Y-9997984D02*
X6251134Y-9997984D01*
X6251134Y-9997984D02*
X6270182Y-10007508D01*
X6270182Y-10007508D02*
X6279705Y-10017031D01*
X6279705Y-10017031D02*
X6289229Y-10036079D01*
X6289229Y-10036079D02*
X6298753Y-10074174D01*
X6298753Y-10074174D02*
X6298753Y-10121793D01*
X6298753Y-10121793D02*
X6289229Y-10159889D01*
X6289229Y-10159889D02*
X6279705Y-10178936D01*
X6279705Y-10178936D02*
X6270182Y-10188460D01*
X6270182Y-10188460D02*
X6251134Y-10197984D01*
X6251134Y-10197984D02*
X6232086Y-10197984D01*
X6232086Y-10197984D02*
X6213039Y-10188460D01*
X6213039Y-10188460D02*
X6203515Y-10178936D01*
X6203515Y-10178936D02*
X6193991Y-10159889D01*
X6193991Y-10159889D02*
X6184467Y-10121793D01*
X6184467Y-10121793D02*
X6184467Y-10074174D01*
X6184467Y-10074174D02*
X6193991Y-10036079D01*
X6193991Y-10036079D02*
X6203515Y-10017031D01*
X6203515Y-10017031D02*
X6213039Y-10007508D01*
X6213039Y-10007508D02*
X6232086Y-9997984D01*
X6422562Y-9997984D02*
X6441610Y-9997984D01*
X6441610Y-9997984D02*
X6460658Y-10007508D01*
X6460658Y-10007508D02*
X6470182Y-10017031D01*
X6470182Y-10017031D02*
X6479705Y-10036079D01*
X6479705Y-10036079D02*
X6489229Y-10074174D01*
X6489229Y-10074174D02*
X6489229Y-10121793D01*
X6489229Y-10121793D02*
X6479705Y-10159889D01*
X6479705Y-10159889D02*
X6470182Y-10178936D01*
X6470182Y-10178936D02*
X6460658Y-10188460D01*
X6460658Y-10188460D02*
X6441610Y-10197984D01*
X6441610Y-10197984D02*
X6422562Y-10197984D01*
X6422562Y-10197984D02*
X6403515Y-10188460D01*
X6403515Y-10188460D02*
X6393991Y-10178936D01*
X6393991Y-10178936D02*
X6384467Y-10159889D01*
X6384467Y-10159889D02*
X6374943Y-10121793D01*
X6374943Y-10121793D02*
X6374943Y-10074174D01*
X6374943Y-10074174D02*
X6384467Y-10036079D01*
X6384467Y-10036079D02*
X6393991Y-10017031D01*
X6393991Y-10017031D02*
X6403515Y-10007508D01*
X6403515Y-10007508D02*
X6422562Y-9997984D01*
X6613039Y-9997984D02*
X6632086Y-9997984D01*
X6632086Y-9997984D02*
X6651134Y-10007508D01*
X6651134Y-10007508D02*
X6660658Y-10017031D01*
X6660658Y-10017031D02*
X6670182Y-10036079D01*
X6670182Y-10036079D02*
X6679705Y-10074174D01*
X6679705Y-10074174D02*
X6679705Y-10121793D01*
X6679705Y-10121793D02*
X6670182Y-10159889D01*
X6670182Y-10159889D02*
X6660658Y-10178936D01*
X6660658Y-10178936D02*
X6651134Y-10188460D01*
X6651134Y-10188460D02*
X6632086Y-10197984D01*
X6632086Y-10197984D02*
X6613039Y-10197984D01*
X6613039Y-10197984D02*
X6593991Y-10188460D01*
X6593991Y-10188460D02*
X6584467Y-10178936D01*
X6584467Y-10178936D02*
X6574943Y-10159889D01*
X6574943Y-10159889D02*
X6565420Y-10121793D01*
X6565420Y-10121793D02*
X6565420Y-10074174D01*
X6565420Y-10074174D02*
X6574943Y-10036079D01*
X6574943Y-10036079D02*
X6584467Y-10017031D01*
X6584467Y-10017031D02*
X6593991Y-10007508D01*
X6593991Y-10007508D02*
X6613039Y-9997984D01*
X6765420Y-10197984D02*
X6765420Y-10064650D01*
X6765420Y-10083698D02*
X6774943Y-10074174D01*
X6774943Y-10074174D02*
X6793991Y-10064650D01*
X6793991Y-10064650D02*
X6822563Y-10064650D01*
X6822563Y-10064650D02*
X6841610Y-10074174D01*
X6841610Y-10074174D02*
X6851134Y-10093222D01*
X6851134Y-10093222D02*
X6851134Y-10197984D01*
X6851134Y-10093222D02*
X6860658Y-10074174D01*
X6860658Y-10074174D02*
X6879705Y-10064650D01*
X6879705Y-10064650D02*
X6908277Y-10064650D01*
X6908277Y-10064650D02*
X6927324Y-10074174D01*
X6927324Y-10074174D02*
X6936848Y-10093222D01*
X6936848Y-10093222D02*
X6936848Y-10197984D01*
X7032086Y-10197984D02*
X7032086Y-10064650D01*
X7032086Y-10083698D02*
X7041610Y-10074174D01*
X7041610Y-10074174D02*
X7060658Y-10064650D01*
X7060658Y-10064650D02*
X7089229Y-10064650D01*
X7089229Y-10064650D02*
X7108277Y-10074174D01*
X7108277Y-10074174D02*
X7117801Y-10093222D01*
X7117801Y-10093222D02*
X7117801Y-10197984D01*
X7117801Y-10093222D02*
X7127324Y-10074174D01*
X7127324Y-10074174D02*
X7146372Y-10064650D01*
X7146372Y-10064650D02*
X7174943Y-10064650D01*
X7174943Y-10064650D02*
X7193991Y-10074174D01*
X7193991Y-10074174D02*
X7203515Y-10093222D01*
X7203515Y-10093222D02*
X7203515Y-10197984D01*
X7593991Y-9988460D02*
X7422563Y-10245603D01*
X7851134Y-9997984D02*
X7870182Y-9997984D01*
X7870182Y-9997984D02*
X7889229Y-10007508D01*
X7889229Y-10007508D02*
X7898753Y-10017031D01*
X7898753Y-10017031D02*
X7908277Y-10036079D01*
X7908277Y-10036079D02*
X7917801Y-10074174D01*
X7917801Y-10074174D02*
X7917801Y-10121793D01*
X7917801Y-10121793D02*
X7908277Y-10159889D01*
X7908277Y-10159889D02*
X7898753Y-10178936D01*
X7898753Y-10178936D02*
X7889229Y-10188460D01*
X7889229Y-10188460D02*
X7870182Y-10197984D01*
X7870182Y-10197984D02*
X7851134Y-10197984D01*
X7851134Y-10197984D02*
X7832086Y-10188460D01*
X7832086Y-10188460D02*
X7822563Y-10178936D01*
X7822563Y-10178936D02*
X7813039Y-10159889D01*
X7813039Y-10159889D02*
X7803515Y-10121793D01*
X7803515Y-10121793D02*
X7803515Y-10074174D01*
X7803515Y-10074174D02*
X7813039Y-10036079D01*
X7813039Y-10036079D02*
X7822563Y-10017031D01*
X7822563Y-10017031D02*
X7832086Y-10007508D01*
X7832086Y-10007508D02*
X7851134Y-9997984D01*
X8003515Y-10178936D02*
X8013039Y-10188460D01*
X8013039Y-10188460D02*
X8003515Y-10197984D01*
X8003515Y-10197984D02*
X7993991Y-10188460D01*
X7993991Y-10188460D02*
X8003515Y-10178936D01*
X8003515Y-10178936D02*
X8003515Y-10197984D01*
X8136848Y-9997984D02*
X8155896Y-9997984D01*
X8155896Y-9997984D02*
X8174944Y-10007508D01*
X8174944Y-10007508D02*
X8184467Y-10017031D01*
X8184467Y-10017031D02*
X8193991Y-10036079D01*
X8193991Y-10036079D02*
X8203515Y-10074174D01*
X8203515Y-10074174D02*
X8203515Y-10121793D01*
X8203515Y-10121793D02*
X8193991Y-10159889D01*
X8193991Y-10159889D02*
X8184467Y-10178936D01*
X8184467Y-10178936D02*
X8174944Y-10188460D01*
X8174944Y-10188460D02*
X8155896Y-10197984D01*
X8155896Y-10197984D02*
X8136848Y-10197984D01*
X8136848Y-10197984D02*
X8117801Y-10188460D01*
X8117801Y-10188460D02*
X8108277Y-10178936D01*
X8108277Y-10178936D02*
X8098753Y-10159889D01*
X8098753Y-10159889D02*
X8089229Y-10121793D01*
X8089229Y-10121793D02*
X8089229Y-10074174D01*
X8089229Y-10074174D02*
X8098753Y-10036079D01*
X8098753Y-10036079D02*
X8108277Y-10017031D01*
X8108277Y-10017031D02*
X8117801Y-10007508D01*
X8117801Y-10007508D02*
X8136848Y-9997984D01*
X8270182Y-9997984D02*
X8393991Y-9997984D01*
X8393991Y-9997984D02*
X8327325Y-10074174D01*
X8327325Y-10074174D02*
X8355896Y-10074174D01*
X8355896Y-10074174D02*
X8374944Y-10083698D01*
X8374944Y-10083698D02*
X8384467Y-10093222D01*
X8384467Y-10093222D02*
X8393991Y-10112270D01*
X8393991Y-10112270D02*
X8393991Y-10159889D01*
X8393991Y-10159889D02*
X8384467Y-10178936D01*
X8384467Y-10178936D02*
X8374944Y-10188460D01*
X8374944Y-10188460D02*
X8355896Y-10197984D01*
X8355896Y-10197984D02*
X8298753Y-10197984D01*
X8298753Y-10197984D02*
X8279706Y-10188460D01*
X8279706Y-10188460D02*
X8270182Y-10178936D01*
X8489229Y-10197984D02*
X8527325Y-10197984D01*
X8527325Y-10197984D02*
X8546372Y-10188460D01*
X8546372Y-10188460D02*
X8555896Y-10178936D01*
X8555896Y-10178936D02*
X8574944Y-10150365D01*
X8574944Y-10150365D02*
X8584468Y-10112270D01*
X8584468Y-10112270D02*
X8584468Y-10036079D01*
X8584468Y-10036079D02*
X8574944Y-10017031D01*
X8574944Y-10017031D02*
X8565420Y-10007508D01*
X8565420Y-10007508D02*
X8546372Y-9997984D01*
X8546372Y-9997984D02*
X8508277Y-9997984D01*
X8508277Y-9997984D02*
X8489229Y-10007508D01*
X8489229Y-10007508D02*
X8479706Y-10017031D01*
X8479706Y-10017031D02*
X8470182Y-10036079D01*
X8470182Y-10036079D02*
X8470182Y-10083698D01*
X8470182Y-10083698D02*
X8479706Y-10102746D01*
X8479706Y-10102746D02*
X8489229Y-10112270D01*
X8489229Y-10112270D02*
X8508277Y-10121793D01*
X8508277Y-10121793D02*
X8546372Y-10121793D01*
X8546372Y-10121793D02*
X8565420Y-10112270D01*
X8565420Y-10112270D02*
X8574944Y-10102746D01*
X8574944Y-10102746D02*
X8584468Y-10083698D01*
X8755896Y-10064650D02*
X8755896Y-10197984D01*
X8708277Y-9988460D02*
X8660658Y-10131317D01*
X8660658Y-10131317D02*
X8784468Y-10131317D01*
X8851134Y-9997984D02*
X8851134Y-10036079D01*
X8927325Y-9997984D02*
X8927325Y-10036079D01*
X9222563Y-10274174D02*
X9213039Y-10264650D01*
X9213039Y-10264650D02*
X9193991Y-10236079D01*
X9193991Y-10236079D02*
X9184468Y-10217031D01*
X9184468Y-10217031D02*
X9174944Y-10188460D01*
X9174944Y-10188460D02*
X9165420Y-10140841D01*
X9165420Y-10140841D02*
X9165420Y-10102746D01*
X9165420Y-10102746D02*
X9174944Y-10055127D01*
X9174944Y-10055127D02*
X9184468Y-10026555D01*
X9184468Y-10026555D02*
X9193991Y-10007508D01*
X9193991Y-10007508D02*
X9213039Y-9978936D01*
X9213039Y-9978936D02*
X9222563Y-9969412D01*
X9289230Y-10017031D02*
X9298753Y-10007508D01*
X9298753Y-10007508D02*
X9317801Y-9997984D01*
X9317801Y-9997984D02*
X9365420Y-9997984D01*
X9365420Y-9997984D02*
X9384468Y-10007508D01*
X9384468Y-10007508D02*
X9393991Y-10017031D01*
X9393991Y-10017031D02*
X9403515Y-10036079D01*
X9403515Y-10036079D02*
X9403515Y-10055127D01*
X9403515Y-10055127D02*
X9393991Y-10083698D01*
X9393991Y-10083698D02*
X9279706Y-10197984D01*
X9279706Y-10197984D02*
X9403515Y-10197984D01*
X9574944Y-10064650D02*
X9574944Y-10197984D01*
X9527325Y-9988460D02*
X9479706Y-10131317D01*
X9479706Y-10131317D02*
X9603515Y-10131317D01*
X9832087Y-10197984D02*
X9832087Y-9997984D01*
X9917801Y-10197984D02*
X9917801Y-10093222D01*
X9917801Y-10093222D02*
X9908277Y-10074174D01*
X9908277Y-10074174D02*
X9889230Y-10064650D01*
X9889230Y-10064650D02*
X9860658Y-10064650D01*
X9860658Y-10064650D02*
X9841611Y-10074174D01*
X9841611Y-10074174D02*
X9832087Y-10083698D01*
X10041611Y-10197984D02*
X10022563Y-10188460D01*
X10022563Y-10188460D02*
X10013039Y-10178936D01*
X10013039Y-10178936D02*
X10003515Y-10159889D01*
X10003515Y-10159889D02*
X10003515Y-10102746D01*
X10003515Y-10102746D02*
X10013039Y-10083698D01*
X10013039Y-10083698D02*
X10022563Y-10074174D01*
X10022563Y-10074174D02*
X10041611Y-10064650D01*
X10041611Y-10064650D02*
X10070182Y-10064650D01*
X10070182Y-10064650D02*
X10089230Y-10074174D01*
X10089230Y-10074174D02*
X10098753Y-10083698D01*
X10098753Y-10083698D02*
X10108277Y-10102746D01*
X10108277Y-10102746D02*
X10108277Y-10159889D01*
X10108277Y-10159889D02*
X10098753Y-10178936D01*
X10098753Y-10178936D02*
X10089230Y-10188460D01*
X10089230Y-10188460D02*
X10070182Y-10197984D01*
X10070182Y-10197984D02*
X10041611Y-10197984D01*
X10222563Y-10197984D02*
X10203515Y-10188460D01*
X10203515Y-10188460D02*
X10193992Y-10169412D01*
X10193992Y-10169412D02*
X10193992Y-9997984D01*
X10374944Y-10188460D02*
X10355896Y-10197984D01*
X10355896Y-10197984D02*
X10317801Y-10197984D01*
X10317801Y-10197984D02*
X10298753Y-10188460D01*
X10298753Y-10188460D02*
X10289230Y-10169412D01*
X10289230Y-10169412D02*
X10289230Y-10093222D01*
X10289230Y-10093222D02*
X10298753Y-10074174D01*
X10298753Y-10074174D02*
X10317801Y-10064650D01*
X10317801Y-10064650D02*
X10355896Y-10064650D01*
X10355896Y-10064650D02*
X10374944Y-10074174D01*
X10374944Y-10074174D02*
X10384468Y-10093222D01*
X10384468Y-10093222D02*
X10384468Y-10112270D01*
X10384468Y-10112270D02*
X10289230Y-10131317D01*
X10460658Y-10188460D02*
X10479706Y-10197984D01*
X10479706Y-10197984D02*
X10517801Y-10197984D01*
X10517801Y-10197984D02*
X10536849Y-10188460D01*
X10536849Y-10188460D02*
X10546373Y-10169412D01*
X10546373Y-10169412D02*
X10546373Y-10159889D01*
X10546373Y-10159889D02*
X10536849Y-10140841D01*
X10536849Y-10140841D02*
X10517801Y-10131317D01*
X10517801Y-10131317D02*
X10489230Y-10131317D01*
X10489230Y-10131317D02*
X10470182Y-10121793D01*
X10470182Y-10121793D02*
X10460658Y-10102746D01*
X10460658Y-10102746D02*
X10460658Y-10093222D01*
X10460658Y-10093222D02*
X10470182Y-10074174D01*
X10470182Y-10074174D02*
X10489230Y-10064650D01*
X10489230Y-10064650D02*
X10517801Y-10064650D01*
X10517801Y-10064650D02*
X10536849Y-10074174D01*
X10613039Y-10274174D02*
X10622563Y-10264650D01*
X10622563Y-10264650D02*
X10641611Y-10236079D01*
X10641611Y-10236079D02*
X10651134Y-10217031D01*
X10651134Y-10217031D02*
X10660658Y-10188460D01*
X10660658Y-10188460D02*
X10670182Y-10140841D01*
X10670182Y-10140841D02*
X10670182Y-10102746D01*
X10670182Y-10102746D02*
X10660658Y-10055127D01*
X10660658Y-10055127D02*
X10651134Y-10026555D01*
X10651134Y-10026555D02*
X10641611Y-10007508D01*
X10641611Y-10007508D02*
X10622563Y-9978936D01*
X10622563Y-9978936D02*
X10613039Y-9969412D01*
M02*
