%TF.GenerationSoftware,KiCad,Pcbnew,8.0.2*%
%TF.CreationDate,2024-09-09T09:37:27-05:00*%
%TF.ProjectId,wh3lk,7768336c-6b2e-46b6-9963-61645f706362,v2.0.0a*%
%TF.SameCoordinates,Original*%
%TF.FileFunction,Paste,Top*%
%TF.FilePolarity,Positive*%
%FSLAX46Y46*%
G04 Gerber Fmt 4.6, Leading zero omitted, Abs format (unit mm)*
G04 Created by KiCad (PCBNEW 8.0.2) date 2024-09-09 09:37:27*
%MOMM*%
%LPD*%
G01*
G04 APERTURE LIST*
G04 Aperture macros list*
%AMRoundRect*
0 Rectangle with rounded corners*
0 $1 Rounding radius*
0 $2 $3 $4 $5 $6 $7 $8 $9 X,Y pos of 4 corners*
0 Add a 4 corners polygon primitive as box body*
4,1,4,$2,$3,$4,$5,$6,$7,$8,$9,$2,$3,0*
0 Add four circle primitives for the rounded corners*
1,1,$1+$1,$2,$3*
1,1,$1+$1,$4,$5*
1,1,$1+$1,$6,$7*
1,1,$1+$1,$8,$9*
0 Add four rect primitives between the rounded corners*
20,1,$1+$1,$2,$3,$4,$5,0*
20,1,$1+$1,$4,$5,$6,$7,0*
20,1,$1+$1,$6,$7,$8,$9,0*
20,1,$1+$1,$8,$9,$2,$3,0*%
G04 Aperture macros list end*
%ADD10RoundRect,0.150000X-0.587500X-0.150000X0.587500X-0.150000X0.587500X0.150000X-0.587500X0.150000X0*%
%ADD11RoundRect,0.375000X-0.625000X-0.375000X0.625000X-0.375000X0.625000X0.375000X-0.625000X0.375000X0*%
%ADD12RoundRect,0.500000X-0.500000X-1.400000X0.500000X-1.400000X0.500000X1.400000X-0.500000X1.400000X0*%
%ADD13RoundRect,0.250001X2.399999X-0.487499X2.399999X0.487499X-2.399999X0.487499X-2.399999X-0.487499X0*%
%ADD14RoundRect,0.237500X-0.287500X-0.237500X0.287500X-0.237500X0.287500X0.237500X-0.287500X0.237500X0*%
%ADD15RoundRect,0.237500X0.237500X-0.287500X0.237500X0.287500X-0.237500X0.287500X-0.237500X-0.287500X0*%
%ADD16R,1.220000X0.910000*%
%ADD17RoundRect,0.250000X0.475000X-0.337500X0.475000X0.337500X-0.475000X0.337500X-0.475000X-0.337500X0*%
%ADD18RoundRect,0.250000X0.337500X0.475000X-0.337500X0.475000X-0.337500X-0.475000X0.337500X-0.475000X0*%
%ADD19RoundRect,0.250000X-0.475000X0.337500X-0.475000X-0.337500X0.475000X-0.337500X0.475000X0.337500X0*%
G04 APERTURE END LIST*
D10*
%TO.C,U2*%
X86437500Y-72000000D03*
X84562500Y-72950000D03*
X84562500Y-71050000D03*
%TD*%
D11*
%TO.C,U1*%
X75350000Y-88300000D03*
D12*
X81650000Y-86000000D03*
D11*
X75350000Y-86000000D03*
X75350000Y-83700000D03*
%TD*%
D13*
%TO.C,R1*%
X86500000Y-79687500D03*
X86500000Y-89312500D03*
%TD*%
D14*
%TO.C,FB4*%
X77875000Y-81000000D03*
X76125000Y-81000000D03*
%TD*%
D15*
%TO.C,FB3*%
X70000000Y-77750000D03*
X70000000Y-76000000D03*
%TD*%
%TO.C,FB2*%
X70000000Y-70000000D03*
X70000000Y-71750000D03*
%TD*%
%TO.C,FB1*%
X70000000Y-65875000D03*
X70000000Y-64125000D03*
%TD*%
D16*
%TO.C,D3*%
X73500000Y-78270000D03*
X73500000Y-75000000D03*
%TD*%
%TO.C,D2*%
X73500000Y-72635000D03*
X73500000Y-69365000D03*
%TD*%
%TO.C,D1*%
X73500000Y-66895000D03*
X73500000Y-63625000D03*
%TD*%
D17*
%TO.C,C10*%
X84500000Y-75500000D03*
X84500000Y-77575000D03*
%TD*%
D18*
%TO.C,C9*%
X70000000Y-85500000D03*
X72075000Y-85500000D03*
%TD*%
%TO.C,C8*%
X72075000Y-82500000D03*
X70000000Y-82500000D03*
%TD*%
D17*
%TO.C,C7*%
X81000000Y-64125000D03*
X81000000Y-66200000D03*
%TD*%
%TO.C,C6*%
X77500000Y-66200000D03*
X77500000Y-64125000D03*
%TD*%
D18*
%TO.C,C5*%
X70000000Y-88500000D03*
X72075000Y-88500000D03*
%TD*%
D19*
%TO.C,C4*%
X77500000Y-72075000D03*
X77500000Y-70000000D03*
%TD*%
%TO.C,C3*%
X81000000Y-72075000D03*
X81000000Y-70000000D03*
%TD*%
D17*
%TO.C,C2*%
X77500000Y-77575000D03*
X77500000Y-75500000D03*
%TD*%
%TO.C,C1*%
X81000000Y-77575000D03*
X81000000Y-75500000D03*
%TD*%
M02*
