M48
; DRILL file {KiCad 8.0.2} date 2024-09-09T09:37:14-0500
; FORMAT={-:-/ absolute / metric / decimal}
; #@! TF.CreationDate,2024-09-09T09:37:14-05:00
; #@! TF.GenerationSoftware,Kicad,Pcbnew,8.0.2
; #@! TF.FileFunction,Plated,1,4,PTH
FMAT,2
METRIC
; #@! TA.AperFunction,Plated,PTH,ViaDrill
T1C0.300
; #@! TA.AperFunction,Plated,PTH,ComponentDrill
T2C1.000
%
G90
G05
T1
X70.0Y-80.0
X73.5Y-84.0
X73.5Y-88.3
X74.0Y-81.0
X80.0Y-81.0
X81.0Y-79.5
X83.0Y-64.0
X83.0Y-70.0
X83.0Y-72.0
X83.2Y-66.2
X90.5Y-89.5
T2
X61.46Y-66.5
X61.46Y-69.04
X61.46Y-71.58
X61.46Y-74.12
X61.46Y-76.66
X61.46Y-79.2
X61.46Y-81.74
X61.46Y-84.28
X64.0Y-66.5
X64.0Y-69.04
X64.0Y-71.58
X64.0Y-74.12
X64.0Y-76.66
X64.0Y-79.2
X64.0Y-81.74
X64.0Y-84.28
X90.96Y-68.5
X90.96Y-71.04
X90.96Y-73.58
X90.96Y-76.12
X93.5Y-68.5
X93.5Y-71.04
X93.5Y-73.58
X93.5Y-76.12
M30
