%TF.GenerationSoftware,KiCad,Pcbnew,8.0.2*%
%TF.CreationDate,2024-09-09T09:37:15-05:00*%
%TF.ProjectId,wh3lk,7768336c-6b2e-46b6-9963-61645f706362,v2.0.0a*%
%TF.SameCoordinates,Original*%
%TF.FileFunction,Drillmap*%
%TF.FilePolarity,Positive*%
%FSLAX45Y45*%
G04 Gerber Fmt 4.5, Leading zero omitted, Abs format (unit mm)*
G04 Created by KiCad (PCBNEW 8.0.2) date 2024-09-09 09:37:15*
%MOMM*%
%LPD*%
G01*
G04 APERTURE LIST*
%ADD10C,0.050000*%
%ADD11C,0.200000*%
G04 APERTURE END LIST*
D10*
X5650000Y-5850000D02*
X9800000Y-5850000D01*
X9800000Y-9200000D01*
X5650000Y-9200000D01*
X5650000Y-5850000D01*
D11*
X5908277Y-9513984D02*
X5908277Y-9313984D01*
X5908277Y-9313984D02*
X5955896Y-9313984D01*
X5955896Y-9313984D02*
X5984467Y-9323508D01*
X5984467Y-9323508D02*
X6003515Y-9342555D01*
X6003515Y-9342555D02*
X6013039Y-9361603D01*
X6013039Y-9361603D02*
X6022562Y-9399698D01*
X6022562Y-9399698D02*
X6022562Y-9428270D01*
X6022562Y-9428270D02*
X6013039Y-9466365D01*
X6013039Y-9466365D02*
X6003515Y-9485412D01*
X6003515Y-9485412D02*
X5984467Y-9504460D01*
X5984467Y-9504460D02*
X5955896Y-9513984D01*
X5955896Y-9513984D02*
X5908277Y-9513984D01*
X6108277Y-9513984D02*
X6108277Y-9380650D01*
X6108277Y-9418746D02*
X6117801Y-9399698D01*
X6117801Y-9399698D02*
X6127324Y-9390174D01*
X6127324Y-9390174D02*
X6146372Y-9380650D01*
X6146372Y-9380650D02*
X6165420Y-9380650D01*
X6232086Y-9513984D02*
X6232086Y-9380650D01*
X6232086Y-9313984D02*
X6222562Y-9323508D01*
X6222562Y-9323508D02*
X6232086Y-9333031D01*
X6232086Y-9333031D02*
X6241610Y-9323508D01*
X6241610Y-9323508D02*
X6232086Y-9313984D01*
X6232086Y-9313984D02*
X6232086Y-9333031D01*
X6355896Y-9513984D02*
X6336848Y-9504460D01*
X6336848Y-9504460D02*
X6327324Y-9485412D01*
X6327324Y-9485412D02*
X6327324Y-9313984D01*
X6460658Y-9513984D02*
X6441610Y-9504460D01*
X6441610Y-9504460D02*
X6432086Y-9485412D01*
X6432086Y-9485412D02*
X6432086Y-9313984D01*
X6689229Y-9513984D02*
X6689229Y-9313984D01*
X6689229Y-9313984D02*
X6755896Y-9456841D01*
X6755896Y-9456841D02*
X6822562Y-9313984D01*
X6822562Y-9313984D02*
X6822562Y-9513984D01*
X7003515Y-9513984D02*
X7003515Y-9409222D01*
X7003515Y-9409222D02*
X6993991Y-9390174D01*
X6993991Y-9390174D02*
X6974943Y-9380650D01*
X6974943Y-9380650D02*
X6936848Y-9380650D01*
X6936848Y-9380650D02*
X6917801Y-9390174D01*
X7003515Y-9504460D02*
X6984467Y-9513984D01*
X6984467Y-9513984D02*
X6936848Y-9513984D01*
X6936848Y-9513984D02*
X6917801Y-9504460D01*
X6917801Y-9504460D02*
X6908277Y-9485412D01*
X6908277Y-9485412D02*
X6908277Y-9466365D01*
X6908277Y-9466365D02*
X6917801Y-9447317D01*
X6917801Y-9447317D02*
X6936848Y-9437793D01*
X6936848Y-9437793D02*
X6984467Y-9437793D01*
X6984467Y-9437793D02*
X7003515Y-9428270D01*
X7098753Y-9380650D02*
X7098753Y-9580650D01*
X7098753Y-9390174D02*
X7117801Y-9380650D01*
X7117801Y-9380650D02*
X7155896Y-9380650D01*
X7155896Y-9380650D02*
X7174943Y-9390174D01*
X7174943Y-9390174D02*
X7184467Y-9399698D01*
X7184467Y-9399698D02*
X7193991Y-9418746D01*
X7193991Y-9418746D02*
X7193991Y-9475889D01*
X7193991Y-9475889D02*
X7184467Y-9494936D01*
X7184467Y-9494936D02*
X7174943Y-9504460D01*
X7174943Y-9504460D02*
X7155896Y-9513984D01*
X7155896Y-9513984D02*
X7117801Y-9513984D01*
X7117801Y-9513984D02*
X7098753Y-9504460D01*
X7279705Y-9494936D02*
X7289229Y-9504460D01*
X7289229Y-9504460D02*
X7279705Y-9513984D01*
X7279705Y-9513984D02*
X7270182Y-9504460D01*
X7270182Y-9504460D02*
X7279705Y-9494936D01*
X7279705Y-9494936D02*
X7279705Y-9513984D01*
X7279705Y-9390174D02*
X7289229Y-9399698D01*
X7289229Y-9399698D02*
X7279705Y-9409222D01*
X7279705Y-9409222D02*
X7270182Y-9399698D01*
X7270182Y-9399698D02*
X7279705Y-9390174D01*
X7279705Y-9390174D02*
X7279705Y-9409222D01*
M02*
